<?xml version="1.0" encoding="UTF-8"?>
<svg xmlns="http://www.w3.org/2000/svg" width="800" height="800" viewBox="0 0 800 800">
  <g fill="none" stroke="#ffffff" stroke-width="1" stroke-linecap="round" stroke-linejoin="round" opacity="1">
    <!-- Peak cluster 1 — top-left -->
    <path d="M 110,170 C 80,140 95,100 140,95 C 185,90 215,120 215,155 C 215,190 180,210 145,205 C 115,200 100,185 110,170 Z"/>
    <path d="M 90,175 C 55,140 75,85 130,80 C 190,75 235,110 235,160 C 235,210 185,235 140,225 C 100,215 75,200 90,175 Z"/>
    <path d="M 70,180 C 30,140 60,70 125,65 C 200,60 260,105 260,170 C 260,235 195,265 140,250 C 90,240 55,215 70,180 Z"/>
    <path d="M 50,185 C 5,140 45,55 120,50 C 210,45 285,95 285,175 C 285,255 200,295 135,280 C 80,265 35,235 50,185 Z"/>
    <path d="M 30,190 C -20,140 30,40 115,35 C 220,30 310,90 315,180 C 320,275 215,325 135,310 C 70,295 15,255 30,190 Z"/>

    <!-- Peak cluster 2 — center-right (elongated ridge) -->
    <path d="M 520,220 C 490,190 505,155 545,155 C 590,155 620,180 625,215 C 630,255 595,275 555,270 C 525,265 510,240 520,220 Z"/>
    <path d="M 500,230 C 465,190 485,135 540,135 C 605,135 645,170 650,220 C 655,275 605,300 555,290 C 520,285 490,260 500,230 Z"/>
    <path d="M 480,240 C 440,195 465,110 535,110 C 620,110 670,155 675,225 C 680,295 615,325 555,315 C 515,310 470,275 480,240 Z"/>
    <path d="M 460,250 C 415,200 440,85 530,85 C 635,85 695,140 705,230 C 715,315 625,355 555,340 C 510,335 445,295 460,250 Z"/>

    <!-- Peak cluster 3 — bottom-left -->
    <path d="M 180,550 C 150,520 165,485 205,480 C 250,475 280,505 280,540 C 280,575 245,595 210,590 C 180,585 165,570 180,550 Z"/>
    <path d="M 160,560 C 125,520 145,465 200,460 C 260,455 305,490 305,540 C 305,595 255,620 210,610 C 170,600 145,585 160,560 Z"/>
    <path d="M 140,570 C 100,525 125,445 195,440 C 270,435 330,485 330,550 C 330,620 265,655 210,640 C 160,630 125,605 140,570 Z"/>
    <path d="M 120,580 C 75,530 110,420 190,415 C 285,410 360,475 360,560 C 360,645 275,690 210,675 C 150,665 100,635 120,580 Z"/>

    <!-- Peak cluster 4 — bottom-right -->
    <path d="M 580,620 C 555,595 570,565 605,565 C 640,565 665,590 665,620 C 665,650 635,665 605,660 C 580,655 570,635 580,620 Z"/>
    <path d="M 560,630 C 530,595 550,550 595,545 C 645,540 685,570 685,615 C 685,665 645,685 605,680 C 570,675 545,655 560,630 Z"/>
    <path d="M 540,640 C 505,600 530,530 590,525 C 660,520 710,560 710,620 C 710,685 655,710 605,700 C 560,695 515,670 540,640 Z"/>

    <!-- Peak cluster 5 — top-right saddle -->
    <path d="M 680,130 C 655,105 670,75 705,70 C 740,65 760,90 760,120 C 760,150 735,165 710,160 C 685,155 670,145 680,130 Z"/>
    <path d="M 660,140 C 625,105 645,50 700,50 C 755,50 780,85 780,125 C 780,170 745,190 705,180 C 680,175 640,165 660,140 Z"/>

    <!-- Peak cluster 6 — mid-left -->
    <path d="M 80,420 C 60,400 70,375 95,375 C 125,375 140,395 140,420 C 140,445 115,460 90,455 C 75,450 70,435 80,420 Z"/>
    <path d="M 60,430 C 35,395 55,345 100,345 C 150,345 180,375 180,420 C 180,470 140,490 100,480 C 75,475 45,460 60,430 Z"/>
    <path d="M 40,440 C 10,395 30,315 95,315 C 170,315 215,360 215,420 C 215,490 160,515 100,500 C 65,495 20,480 40,440 Z"/>

    <!-- Peak cluster 7 — mid-center -->
    <path d="M 360,380 C 335,355 350,320 385,320 C 425,320 450,345 450,380 C 450,415 420,430 385,425 C 360,420 350,400 360,380 Z"/>
    <path d="M 340,390 C 305,355 330,295 380,295 C 440,295 480,330 480,385 C 480,440 435,465 385,455 C 355,450 320,425 340,390 Z"/>
    <path d="M 320,400 C 275,355 310,270 375,270 C 460,270 510,320 510,390 C 510,465 450,495 385,480 C 345,475 290,445 320,400 Z"/>

    <!-- Peak cluster 8 — bottom-center (saddle) -->
    <path d="M 380,700 C 350,670 365,635 400,635 C 440,635 470,660 475,695 C 480,730 445,755 405,750 C 375,745 365,720 380,700 Z"/>
    <path d="M 360,710 C 320,665 350,615 400,615 C 460,615 500,650 505,700 C 510,755 460,780 410,770 C 375,765 335,740 360,710 Z"/>
  </g>
</svg>
